<svg width="184" height="61" viewBox="0 0 184 61" fill="none" xmlns="http://www.w3.org/2000/svg">
<g id="Layer_x0020_1">
<g id="_2352787422304">
<path id="Vector" d="M66.7809 30.8535H67.0163C67.1802 30.8535 67.3442 30.8776 67.5081 30.8776C68.3742 30.8776 69.2654 30.8033 70.1315 30.3899C71.6765 29.7077 72.1452 27.8073 72.1452 26.808C72.1452 24.8595 70.9744 24.2735 69.5451 24.2735C69.1477 24.2735 68.7716 24.3217 68.0232 24.3959C67.7898 25.3712 67.6721 25.9311 67.321 27.7832L66.7829 30.8535H66.7809ZM73.9719 30.5364C73.0113 31.5357 71.8636 31.9752 70.9262 32.2421C71.1364 34.6301 72.3323 36.8715 73.9951 38.7237C74.323 39.113 73.9719 39.7953 73.3392 39.7712H72.94C72.8937 39.7712 72.8223 39.7471 72.7528 39.7471C71.746 39.7471 70.7159 39.4541 70.2472 38.7237C69.8016 38.0655 69.356 37.2869 68.9124 36.3598C68.326 35.1177 67.9286 33.8254 67.7415 32.7036H66.453C66.3373 33.5083 66.1946 34.3852 66.0306 35.3103C65.8666 36.2354 65.7258 37.1625 65.585 37.9672V38.0635C65.585 38.1117 65.5619 38.1598 65.5619 38.1859C65.5619 38.21 65.5619 38.3083 65.5387 38.3806C65.4211 39.111 64.6726 39.7692 63.7352 39.7692C63.712 39.7692 63.6889 39.7451 63.5944 39.7451L63.4304 39.7692C62.5875 39.7692 61.8603 39.1351 62.0242 38.501C62.3059 37.6481 62.5856 36.1371 62.8672 34.6742C63.0311 33.7732 63.1951 32.8702 63.3591 31.9451C63.7101 29.9966 64.0612 28.0461 64.3891 26.1939C64.5762 25.2187 64.6476 24.5364 64.6939 24.0247C64.7633 23.3184 65.396 22.6361 66.3334 22.6602H67.7859C68.3723 22.6361 69.2152 22.6361 69.52 22.6361C69.7071 22.6361 69.8942 22.612 70.035 22.612H70.3629C71.4412 22.612 72.9399 22.6602 73.9468 23.2943C75.3299 24.2214 75.7272 25.5859 75.7272 26.5852C75.7272 27.121 75.5864 28.8769 73.97 30.5324L73.9719 30.5364Z" fill="#FEFEFE"/>
<path id="_1" d="M79.1511 33.8256C80.4396 33.6309 81.7976 32.754 82.9704 31.6082C83.5085 31.0483 83.931 30.1955 83.931 29.1962C83.931 28.1487 83.4391 27.661 82.8527 27.661C82.5016 27.661 81.705 27.8316 80.6981 29.0497C79.9709 29.9507 79.3401 31.8028 79.1511 33.8256ZM81.3771 38.4309C82.22 38.4309 82.9241 38.1861 83.4854 37.9433C84.0718 37.6744 84.7739 38.0396 84.6331 38.5774C84.4691 39.1132 83.9772 39.649 83.1343 39.8938C82.5479 40.0162 81.8227 40.1366 80.8389 40.1366C76.7631 40.0162 75.7562 37.7487 75.708 34.7025C75.708 32.0958 76.9734 29.9005 77.77 28.9032C79.3864 26.8082 81.6818 26.1259 83.3677 26.1259C85.8734 26.1259 87.1387 27.4182 87.1387 29.0998C87.1387 29.7821 86.8108 30.7333 86.2958 31.56C85.7326 32.437 84.7025 33.1433 83.8827 33.5587C82.4071 34.3393 80.837 34.4356 79.0566 34.5099C79.0335 34.6062 79.0103 34.9252 79.0103 35.3868C79.0103 36.5567 79.3382 38.457 81.3751 38.4329L81.3771 38.4309Z" fill="#FEFEFE"/>
<path id="_2" d="M96.9532 26.3686C97.6804 26.5392 97.9138 27.2455 97.7267 27.7332C97.5858 28.1225 97.1634 28.269 96.6484 28.269C96.3436 28.269 96.0851 28.2208 95.898 28.1225H95.9212C95.6396 28.0262 95.3348 27.9519 94.9837 27.9519C92.127 27.9519 90.4392 31.2168 90.4392 34.5318C90.4392 35.7258 90.6263 37.1887 91.6814 37.869C92.291 38.2843 92.8754 38.4308 93.4387 38.4308C93.9537 38.4308 94.3993 38.3325 94.8449 38.1619C95.5238 37.9673 96.0157 38.4549 95.8518 38.9425C95.6415 39.5024 94.9374 39.9178 94.1659 40.0382C93.8148 40.0864 93.3692 40.1124 92.9487 40.1124C89.2472 40.1124 86.998 38.0175 86.998 34.7024C86.998 30.8997 89.6677 26.1981 95.3367 26.1981C96.0389 26.1981 96.5539 26.2723 96.9532 26.3686Z" fill="#FEFEFE"/>
<path id="_3" d="M98.1014 30.7311C98.3348 29.4147 98.4062 28.6101 98.383 28.0502C98.3348 27.4402 98.7341 26.8321 99.5539 26.7097C99.7892 26.6856 99.9995 26.6616 100.163 26.6355H100.14C100.983 26.4649 101.78 26.9525 101.734 27.5365C101.71 27.6107 101.71 27.8535 101.662 28.0241C101.639 28.1445 101.591 28.2188 101.57 28.3412C101.944 27.8295 102.389 27.3418 102.928 26.9525C103.327 26.6836 103.819 26.4649 104.286 26.2943C105.152 26.0254 105.856 26.7097 105.643 27.392C105.433 28.0261 104.542 28.4636 103.653 28.6843H103.676C102.785 28.9291 101.591 29.9525 100.958 32.3646C100.607 33.6308 100.067 36.8234 99.9512 38.4087C99.8799 39.1392 99.1083 39.7251 98.194 39.701H98.0763C97.2566 39.701 96.5062 39.1412 96.6702 38.483C96.7878 38.0676 96.9055 37.6301 96.9518 37.3131L98.0995 30.7331L98.1014 30.7311Z" fill="#FEFEFE"/>
<path id="_4" d="M108.243 33.972C107.985 35.2142 107.892 35.776 107.892 36.3118C107.892 37.2128 108.197 37.9694 109.111 37.9694C109.509 37.9694 110.728 37.7747 111.712 36.1413H111.689C112.18 35.2403 112.744 32.9727 113.072 31.0964C113.33 29.6837 113.446 28.7326 113.469 28.1245C113.492 27.4182 114.055 26.76 114.921 26.5894C114.945 26.5894 115.039 26.5894 115.085 26.5653L115.039 26.6155C115.155 26.5413 115.367 26.4931 115.483 26.4931C116.21 26.3948 117.005 26.9326 116.912 27.4683C116.584 28.6864 116.233 30.2697 115.859 32.5132C115.272 35.8764 115.062 37.5098 115.062 38.4108V38.6055C115.085 39.2637 114.337 39.7994 113.492 39.7994C112.601 39.7994 111.829 39.1894 111.876 38.4831V38.1419C111.594 38.5553 111.289 38.8964 110.869 39.2135C109.816 39.9439 108.363 40.0663 107.987 40.0663C106.207 40.0663 104.613 39.1894 104.613 37.4095C104.613 37.0683 104.661 36.7272 104.8 35.8262L105.971 29.3687C106.066 28.9051 106.112 28.5158 106.135 28.2229C106.183 27.5887 106.534 26.8583 107.447 26.6877H107.401C107.447 26.6637 107.541 26.6637 107.636 26.6637C107.659 26.6637 107.728 26.6396 107.754 26.6396H107.707C107.777 26.6155 107.894 26.5914 108.012 26.5914C108.809 26.4951 109.628 27.0791 109.511 27.7132C109.277 28.6884 109.16 29.152 108.996 29.9787C108.973 30.1011 108.924 30.2717 108.903 30.4182L108.247 33.976L108.243 33.972Z" fill="#FEFEFE"/>
<path id="_5" d="M122.978 23.1038C122.978 23.9084 122.276 25.1506 120.916 25.1506C120.119 25.1506 119.299 24.7613 119.299 23.8583C119.299 23.1038 119.955 21.8596 121.408 21.8596C122.228 21.8596 122.978 22.273 122.978 23.1018V23.1038ZM121.105 33.7894C120.683 36.2195 120.495 37.6563 120.426 38.481C120.38 39.1874 119.535 39.675 118.646 39.675H118.458C117.708 39.6991 117.124 39.0168 117.193 38.4068C117.193 38.3827 117.216 38.3325 117.216 38.2844C117.334 37.7767 117.498 37.0944 117.662 36.0991L118.061 33.7151C118.622 30.5024 118.835 28.9232 118.811 28.0503C118.788 27.4663 119.047 26.7579 119.936 26.7098C120.264 26.6616 120.499 26.6135 120.756 26.5633C121.552 26.3927 122.231 27.0028 122.185 27.6349C122.162 27.7332 122.139 27.9038 122.139 28.0262C122.044 28.4656 121.927 29.0456 121.788 29.8503L121.109 33.7894H121.105Z" fill="#FEFEFE"/>
<path id="_6" d="M127.92 26.1981C128.083 25.1506 128.224 24.5647 128.458 23.762C128.622 23.1279 127.756 22.6643 126.936 22.8349C125.929 23.0797 125.225 23.762 125.155 24.5406C125.109 25.0282 125.061 25.5399 124.945 26.1499C124.336 26.1499 123.89 26.5392 123.821 27.0269C123.751 27.4162 124.125 27.7573 124.594 27.8556L123.118 35.9466C123.001 36.6289 122.908 37.1646 122.908 37.6282C122.908 38.1158 123.095 38.5533 123.446 39.0911C123.797 39.6028 124.804 40.0663 126.374 40.0663C126.538 40.0663 126.82 40.0663 126.984 40.0422C127.827 39.9198 128.436 39.384 128.577 38.776C128.647 38.3606 128.039 37.9473 127.406 38.0436C127.219 38.0937 127.055 38.1178 126.915 38.1178C126.4 38.1178 126.025 37.7526 126.025 36.8516C126.025 36.1453 126.212 35.0476 126.471 33.7814C126.54 33.4162 126.658 32.9045 126.751 32.3426C126.868 31.6844 127.009 30.9539 127.127 30.2958C127.268 29.5633 127.406 28.8329 127.524 28.2489C127.547 28.1024 127.57 28.0302 127.595 27.9078C127.923 27.9078 128.298 27.9078 128.743 27.9319C129.517 27.9319 130.196 27.5907 130.336 27.055C130.431 26.5673 129.868 26.0797 129.166 26.1539C128.93 26.178 128.651 26.178 128.346 26.178C128.228 26.178 128.11 26.2021 127.995 26.2021H127.923L127.92 26.1981Z" fill="#FEFEFE"/>
<path id="_7" d="M131.247 30.7312C131.481 29.4148 131.552 28.586 131.527 28.0262C131.481 27.4402 131.737 26.8081 132.301 26.7339C132.536 26.7098 132.746 26.6857 132.933 26.6616C133.52 26.5392 134.081 26.9787 133.965 27.5867C133.871 28.0503 133.473 29.7559 133.286 30.7794C133.824 29.8784 134.669 27.8315 135.886 26.9767C136.378 26.6355 136.801 26.4409 137.152 26.3185C137.715 26.1479 138.112 26.782 137.925 27.3419C137.69 28.0483 136.988 28.4376 136.286 28.6081C135.184 28.877 133.849 29.9004 133.194 32.3365C132.843 33.6289 132.302 36.8456 132.187 38.4529C132.117 39.1593 131.554 39.7212 130.875 39.6951C130.829 39.6951 130.806 39.6951 130.759 39.6951C130.173 39.6951 129.658 39.1593 129.822 38.5493C129.94 38.1359 130.055 37.6964 130.103 37.3312L131.251 30.7272L131.247 30.7312Z" fill="#FF595A"/>
<path id="_8" d="M148.276 26.5874C148.837 26.3927 149.306 27.0268 149.165 27.6108C148.978 28.4155 148.721 29.6576 148.322 31.9252L147.9 34.3372C147.5 36.677 147.385 37.9693 147.385 38.7479C147.385 39.3339 146.847 39.7473 146.283 39.7713C145.697 39.7954 145.205 39.3078 145.253 38.7238C145.348 37.7245 145.676 35.9225 145.676 35.6295C144.597 37.1165 143.076 40.0402 140.921 40.0402C139.21 40.0402 137.501 38.7479 137.501 35.9707C137.501 34.8008 137.9 30.2677 141.39 27.5867C141.953 27.1473 143.288 26.2222 145.232 26.2222C146.285 26.2222 146.989 26.4911 147.738 26.784L148.276 26.5894V26.5874ZM146.823 28.1466C146.38 28.0001 145.722 27.7573 144.833 27.7573C140.898 27.7573 139.843 33.0208 139.843 35.0677C139.843 36.7493 140.429 37.9914 141.951 37.9914C142.817 37.9914 143.849 37.578 144.669 36.3339C145.348 35.3105 145.793 33.8978 146.216 31.5339L146.825 28.1466H146.823Z" fill="#FF595A"/>
<path id="_9" d="M160.503 33.972C160.269 35.4349 159.941 37.2128 159.941 38.5292C159.918 39.1633 159.519 39.7472 158.911 39.7713C158.232 39.7713 157.646 39.2114 157.741 38.5031C157.787 38.1138 158.022 36.5044 158.163 35.7981C157.249 37.0683 155.844 40.0141 153.713 40.0141C151.84 40.0141 150.224 38.6496 150.224 35.8783C150.224 35.1961 150.411 31.7686 152.588 29.0436C153.9 27.39 155.844 26.2703 157.883 26.2703C158.609 26.2703 159.077 26.4168 159.641 26.5874C159.876 25.2951 159.992 24.5405 159.945 24.0048C159.922 23.3706 160.225 22.7125 160.811 22.6402C160.999 22.6161 161.162 22.5921 161.303 22.5439C161.89 22.4215 162.474 22.8609 162.356 23.4449C162.216 24.079 162.075 24.9318 161.77 26.6135L160.505 33.972H160.503ZM152.561 35.0777C152.561 36.7793 153.312 38.0456 154.623 38.0456C155.466 38.0456 156.662 37.4857 157.505 35.7579C158.184 34.3452 158.466 32.8864 159.38 28.0944C158.817 27.9278 158.325 27.7813 157.646 27.7813C153.547 27.7813 152.563 33.5446 152.563 35.0757L152.561 35.0777Z" fill="#FF595A"/>
<path id="_10" d="M173.669 26.5874C174.231 26.3927 174.699 27.0268 174.559 27.6108C174.372 28.4155 174.115 29.6576 173.716 31.9252L173.293 34.3372C172.894 36.677 172.778 37.9693 172.778 38.7479C172.778 39.3339 172.24 39.7473 171.677 39.7713C171.09 39.7954 170.599 39.3078 170.647 38.7238C170.741 37.7245 171.069 35.9225 171.069 35.6295C169.991 37.1165 168.469 40.0402 166.314 40.0402C164.604 40.0402 162.895 38.7479 162.895 35.9707C162.895 34.8008 163.294 30.2677 166.783 27.5867C167.346 27.1473 168.681 26.2222 170.626 26.2222C171.679 26.2222 172.383 26.4911 173.131 26.784L173.669 26.5894V26.5874ZM172.217 28.1466C171.773 28.0001 171.116 27.7573 170.226 27.7573C166.291 27.7573 165.236 33.0208 165.236 35.0677C165.236 36.7493 165.823 37.9914 167.345 37.9914C168.211 37.9914 169.243 37.578 170.062 36.3339C170.741 35.3105 171.187 33.8978 171.609 31.5339L172.219 28.1466H172.217Z" fill="#FF595A"/>
<path id="_11" d="M177.136 30.7312C177.369 29.4148 177.441 28.586 177.416 28.0262C177.369 27.4402 177.626 26.8081 178.189 26.7339C178.425 26.7098 178.635 26.6857 178.822 26.6616C179.408 26.5392 179.97 26.9787 179.854 27.5867C179.759 28.0503 179.362 29.7559 179.175 30.7794C179.713 29.8784 180.558 27.8315 181.775 26.9767C182.267 26.6355 182.689 26.4409 183.04 26.3185C183.604 26.1479 184.001 26.782 183.814 27.3419C183.579 28.0483 182.876 28.4376 182.174 28.6081C181.073 28.877 179.738 29.9004 179.082 32.3365C178.731 33.6289 178.191 36.8456 178.075 38.4529C178.006 39.1593 177.443 39.7212 176.764 39.6951C176.717 39.6951 176.694 39.6951 176.648 39.6951C176.062 39.6951 175.547 39.1593 175.711 38.5493C175.828 38.1359 175.944 37.6964 175.992 37.3312L177.14 30.7272L177.136 30.7312Z" fill="#FF595A"/>
<g id="Group">
<g id="Group_2">
<path id="Vector_2" d="M28.5256 9.36584C39.6882 9.36584 48.7367 18.7792 48.7367 30.3919C48.7367 42.0046 39.6882 51.42 28.5256 51.42C17.3629 51.42 8.3125 42.0066 8.3125 30.3919C8.3125 18.7792 17.361 9.36584 28.5256 9.36584Z" fill="#FF595A"/>
<path id="Vector_3" d="M18.9502 29.1179C19.6754 29.5012 20.4933 29.7179 21.3594 29.7179C22.2833 29.7179 23.1513 29.4731 23.9113 29.0436C24.0251 29.2423 24.1486 29.4349 24.2836 29.6176C24.2489 29.6376 24.2142 29.6557 24.1794 29.6778C22.6923 30.5346 21.5156 31.8189 20.7595 33.3339C19.9744 32.0396 19.3591 30.6249 18.9482 29.1199L18.9502 29.1179Z" fill="#FEFEFE"/>
<path id="Vector_4" d="M18.1152 27.1553C18.2715 27.3379 18.4412 27.5064 18.6225 27.6589C18.447 26.6837 18.3544 25.6763 18.3544 24.6489C18.3544 23.19 18.5415 21.7773 18.8887 20.4308C18.8212 20.479 18.7537 20.5312 18.6881 20.5833C18.7537 20.5292 18.8193 20.479 18.8868 20.4308C19.5889 19.9232 20.4415 19.6262 21.3596 19.6262C22.9799 19.6262 24.39 20.5492 25.1364 21.9158C23.9386 22.9372 23.1728 24.4884 23.1728 26.2221C23.1728 26.8783 23.2828 27.5064 23.4834 28.0904C22.8545 28.4576 22.1312 28.6683 21.3596 28.6683C20.3219 28.6683 19.369 28.289 18.6206 27.6569C18.4393 27.5024 18.2695 27.3339 18.1133 27.1532L18.1152 27.1553Z" fill="#FEFEFE"/>
<path id="Vector_5" d="M41.4805 38.6235C41.413 37.2188 41.3011 35.6395 41.2297 35.1941C41.2452 35.6676 41.1584 37.281 41.0484 38.6917C39.8197 38.8763 38.5312 38.9967 37.2041 39.0489C37.2272 38.3104 37.2407 37.6864 37.2407 37.4155V37.3834C37.2407 34.1847 35.5722 31.2369 32.8853 29.6797C32.8467 29.6536 32.8081 29.6315 32.7695 29.6074C32.9046 29.4268 33.028 29.2362 33.1399 29.0375C33.8979 29.467 34.7679 29.7118 35.6918 29.7118C37.0479 29.7118 38.2881 29.184 39.2314 28.3151C39.3317 28.3713 39.432 28.4335 39.5361 28.5017C41.8393 29.8242 43.4017 32.3767 43.4017 35.3064V35.3385C43.4017 35.6897 43.3785 36.7091 43.3361 37.7907C43.0313 38.0235 42.7189 38.2462 42.3987 38.4569C42.0977 38.5151 41.791 38.5693 41.4824 38.6195L41.4805 38.6235Z" fill="#FEFEFE"/>
<path id="Vector_6" d="M35.6899 19.6282C38.0914 19.6282 40.0357 21.6529 40.0357 24.1492C40.0357 26.6456 38.0895 28.6703 35.6899 28.6703C34.9183 28.6703 34.195 28.4596 33.5662 28.0924C33.7668 27.5084 33.8767 26.8803 33.8767 26.2242C33.8767 24.4904 33.1109 22.9392 31.9131 21.9178C32.6615 20.5512 34.0715 19.6282 35.6899 19.6282Z" fill="#FEFEFE"/>
<path id="Vector_7" d="M32.7478 40.9192C28.1088 40.5219 24.0369 38.0175 21.4174 34.3292C21.2747 34.6764 21.1531 35.0376 21.0605 35.4088C21.1551 35.0376 21.2747 34.6764 21.4174 34.3272C22.0752 32.7339 23.2306 31.4135 24.6811 30.5807C24.7872 30.5145 24.8933 30.4583 24.9975 30.4021C25.9407 31.265 27.1752 31.7887 28.5254 31.7887C29.8815 31.7887 31.1198 31.261 32.065 30.3921C32.1653 30.4483 32.2675 30.5105 32.3697 30.5787C34.6729 31.9011 36.2353 34.4536 36.2353 37.3834V37.4155C36.2353 37.8168 36.2044 39.0971 36.1485 40.3413C35.5563 40.4737 34.9429 40.5941 34.316 40.6964C34.2485 39.2918 34.1386 37.7125 34.0653 37.267C34.0807 37.7406 33.9939 39.354 33.8839 40.7647C33.5117 40.8209 33.1317 40.869 32.7478 40.9152C32.418 40.9533 32.0823 40.9874 31.7448 41.0155C32.0823 40.9854 32.416 40.9533 32.7478 40.9152V40.9192Z" fill="#FEFEFE"/>
<path id="Vector_8" d="M28.5255 30.7452C26.124 30.7452 24.1797 28.7205 24.1797 26.2241C24.1797 23.7278 26.126 21.7031 28.5255 21.7031C30.9251 21.7031 32.8714 23.7278 32.8714 26.2241C32.8714 28.7225 30.9251 30.7452 28.5255 30.7452Z" fill="#FEFEFE"/>
<path id="Vector_9" d="M20.5434 33.8055C20.3409 34.2771 20.1788 34.7687 20.0592 35.2744C20.0573 35.2784 20.0573 35.2824 20.0573 35.2864C20.0187 35.4449 19.9859 35.6055 19.9589 35.766C19.9551 35.7841 19.9512 35.8041 19.9493 35.8222C19.9223 35.9767 19.8991 36.1332 19.8798 36.2898C19.8779 36.3138 19.8741 36.3359 19.8721 36.36C19.8548 36.5165 19.8393 36.675 19.8297 36.8336C19.8297 36.8536 19.8278 36.8717 19.8278 36.8918C19.8181 37.0563 19.8123 37.2229 19.8123 37.3894V37.4215C19.8123 37.4556 19.8123 37.4958 19.8123 37.5399C19.8123 37.5841 19.8143 37.6342 19.8143 37.6884C19.8162 37.7968 19.8181 37.9232 19.822 38.0657C19.8278 38.3466 19.8374 38.6878 19.849 39.053C18.8537 39.0128 17.8815 38.9346 16.9363 38.8202C16.6219 38.7821 16.3114 38.7399 16.0047 38.6938C15.9912 38.5172 15.9777 38.3366 15.9661 38.158C15.941 37.7988 15.9179 37.4356 15.8966 37.0924C15.887 36.9199 15.8774 36.7533 15.8696 36.5948C15.8523 36.2757 15.8407 35.9847 15.833 35.7459C15.8291 35.6255 15.8272 35.5192 15.8253 35.4269C15.8233 35.3346 15.8233 35.2583 15.8272 35.1981C15.8176 35.2543 15.8079 35.3265 15.7983 35.4148C15.7886 35.5031 15.7771 35.6075 15.7655 35.7239C15.7597 35.7821 15.7539 35.8423 15.75 35.9065C15.7327 36.0991 15.7153 36.3158 15.698 36.5506C15.6864 36.7072 15.6748 36.8717 15.6652 37.0403C15.6536 37.2088 15.644 37.3834 15.6324 37.56C15.6208 37.7366 15.6112 37.9152 15.6015 38.0938C15.5919 38.2724 15.5822 38.451 15.5745 38.6276C14.9476 38.5252 14.3362 38.4068 13.744 38.2724C13.7228 37.8048 13.7035 37.3332 13.69 36.9058C13.6861 36.7633 13.6823 36.6249 13.6765 36.4944C13.6726 36.362 13.6688 36.2376 13.6668 36.1212C13.6649 36.0048 13.663 35.8964 13.6591 35.7981C13.6552 35.6015 13.6533 35.447 13.6533 35.3466V35.3145C13.6533 34.9473 13.6784 34.5881 13.7247 34.2349C13.7478 34.0583 13.7768 33.8837 13.8115 33.7112C13.8983 33.2797 14.0198 32.8623 14.1722 32.461C14.3554 31.9794 14.5831 31.5219 14.8512 31.0924C14.9399 30.95 15.0344 30.8095 15.1309 30.673C15.1791 30.6048 15.2292 30.5386 15.2813 30.4704C15.4337 30.2717 15.5957 30.0791 15.7674 29.8964C16.2805 29.3486 16.8688 28.8811 17.5169 28.5078C17.623 28.4416 17.7291 28.3854 17.8333 28.3292C17.9104 28.3995 17.9895 28.4657 18.0686 28.5319C18.086 28.5459 18.1052 28.562 18.1226 28.576C18.2017 28.6383 18.2808 28.6985 18.3618 28.7566C18.3637 28.7587 18.3656 28.7587 18.3676 28.7607C18.4582 28.8249 18.5528 28.8871 18.6473 28.9453C18.6511 28.9473 18.6569 28.9513 18.6608 28.9533C18.7553 29.0115 18.8517 29.0657 18.9501 29.1179C19.3629 30.6229 19.9782 32.0376 20.7614 33.3319C20.6842 33.4844 20.6128 33.6409 20.5453 33.7975C20.5434 33.7995 20.5434 33.8035 20.5415 33.8055H20.5434Z" fill="#001233"/>
<path id="Vector_10" d="M18.8866 20.4309C18.5394 21.7774 18.3523 23.1901 18.3523 24.649C18.3523 25.6764 18.4449 26.6838 18.6204 27.659C18.4391 27.5045 18.2694 27.3359 18.1131 27.1553C18.1054 27.1473 18.0996 27.1393 18.0938 27.1333C18.0514 27.0811 18.009 27.0309 17.9665 26.9767C17.9569 26.9647 17.9472 26.9506 17.9357 26.9366C17.899 26.8884 17.8643 26.8383 17.8276 26.7881C17.8161 26.772 17.8064 26.756 17.7949 26.7399C17.7621 26.6898 17.7293 26.6396 17.6965 26.5894C17.6868 26.5734 17.6772 26.5573 17.6656 26.5413C17.6328 26.4871 17.602 26.4329 17.573 26.3767C17.5653 26.3627 17.5576 26.3486 17.5499 26.3346C17.5152 26.2684 17.4804 26.2021 17.4496 26.1339C17.4477 26.1299 17.4457 26.1279 17.4457 26.1239C17.411 26.0496 17.3782 25.9754 17.3473 25.8971C17.3473 25.8951 17.3454 25.8951 17.3454 25.8931C17.3165 25.8229 17.2914 25.7506 17.2663 25.6784C17.2586 25.6583 17.2528 25.6363 17.2451 25.6162C17.2278 25.562 17.2104 25.5078 17.195 25.4537C17.1872 25.4276 17.1795 25.3995 17.1737 25.3734C17.1602 25.3232 17.1467 25.273 17.1352 25.2229C17.1275 25.1928 17.1217 25.1627 17.1159 25.1326C17.1062 25.0824 17.0966 25.0343 17.0869 24.9841C17.0812 24.952 17.0754 24.9219 17.0715 24.8918C17.0638 24.8416 17.0561 24.7894 17.0503 24.7393C17.0464 24.7092 17.0426 24.6791 17.0387 24.647C17.0329 24.5908 17.0291 24.5346 17.0252 24.4784C17.0233 24.4523 17.0214 24.4262 17.0194 24.4001C17.0156 24.3159 17.0117 24.2336 17.0117 24.1493C17.0117 24.061 17.0156 23.9727 17.0194 23.8864C17.0214 23.8603 17.0233 23.8322 17.0252 23.8062C17.0291 23.746 17.0349 23.6858 17.0426 23.6235C17.0464 23.5934 17.0503 23.5633 17.0542 23.5353C17.0619 23.4751 17.0715 23.4169 17.0812 23.3587C17.085 23.3326 17.0889 23.3065 17.0947 23.2804C17.1082 23.2062 17.1255 23.1319 17.1429 23.0577C17.1448 23.0496 17.1467 23.0396 17.1487 23.0316C17.168 22.9473 17.1911 22.865 17.2162 22.7827C17.222 22.7667 17.2278 22.7506 17.2335 22.7326C17.2528 22.6684 17.276 22.6042 17.2991 22.5419C17.3068 22.5199 17.3165 22.4978 17.3242 22.4777C17.3473 22.4175 17.3724 22.3573 17.3975 22.2991C17.4052 22.2811 17.4129 22.261 17.4226 22.2429C17.4534 22.1727 17.4882 22.1005 17.5229 22.0322C17.5248 22.0282 17.5267 22.0242 17.5287 22.0182C17.6078 21.8657 17.6965 21.7172 17.791 21.5747C17.7987 21.5647 17.8045 21.5547 17.8122 21.5446C17.8547 21.4824 17.8971 21.4242 17.9415 21.364C17.9492 21.354 17.955 21.344 17.9627 21.3359C18.1189 21.1312 18.2944 20.9406 18.4815 20.768C18.4835 20.766 18.4854 20.766 18.4873 20.764C18.5471 20.7078 18.6089 20.6557 18.6725 20.6015C18.6783 20.5975 18.6841 20.5934 18.6879 20.5894C18.7535 20.5353 18.8191 20.4851 18.8885 20.4369L18.8866 20.4309Z" fill="#001233"/>
<path id="Vector_11" d="M43.3127 38.2682C43.0118 38.3365 42.7051 38.4007 42.3965 38.4589C42.7167 38.2482 43.0292 38.0274 43.3339 37.7927C43.3281 37.9492 43.3204 38.1077 43.3146 38.2662L43.3127 38.2682Z" fill="#C8C8C9"/>
<path id="Vector_12" d="M32.7476 40.9191C32.4178 40.9572 32.0821 40.9893 31.7446 41.0194C31.7234 41.0214 31.7022 41.0234 31.6809 41.0254C31.353 41.0535 31.0212 41.0776 30.6875 41.0977C30.6818 41.0977 30.676 41.0977 30.6683 41.0997C30.3461 41.1177 30.0221 41.1318 29.6961 41.1418C29.6305 41.1438 29.5668 41.1458 29.5013 41.1478C29.1772 41.1559 28.8532 41.1619 28.5252 41.1619C27.825 41.1619 27.1345 41.1418 26.4555 41.1057C25.7958 41.0696 25.1496 41.0154 24.5131 40.9452C24.0579 40.895 23.6084 40.8368 23.1648 40.7706C23.132 40.3291 23.0992 39.8696 23.0722 39.4301C23.0606 39.2535 23.051 39.081 23.0413 38.9164C23.0317 38.7539 23.024 38.5973 23.0163 38.4489C23.0124 38.3686 23.0086 38.2923 23.0066 38.2161C23.0008 38.0736 22.9951 37.9412 22.9912 37.8208C22.9893 37.7606 22.9873 37.7024 22.9873 37.6482C22.9835 37.4897 22.9835 37.3612 22.9854 37.2729C22.9488 37.4957 22.9025 38.0014 22.8562 38.6274C22.8446 38.784 22.833 38.9485 22.8234 39.1171C22.8118 39.2856 22.8002 39.4602 22.7906 39.6368C22.7809 39.8134 22.7694 39.992 22.7597 40.1706C22.7501 40.3492 22.7404 40.5278 22.7327 40.7044C22.1058 40.602 21.4944 40.4836 20.9003 40.3492C20.8424 39.105 20.8115 37.8248 20.8115 37.4234V37.3913C20.8115 37.2709 20.8154 37.1505 20.8212 37.0301C20.8231 37 20.8231 36.9719 20.825 36.9418C20.8385 36.699 20.8617 36.4582 20.8964 36.2234C20.9003 36.2034 20.9022 36.1833 20.906 36.1632C20.9427 35.9184 20.9928 35.6756 21.0507 35.4388C21.0526 35.4308 21.0546 35.4228 21.0565 35.4127C21.151 35.0415 21.2706 34.6803 21.4133 34.3331C24.0328 38.0194 28.1047 40.5258 32.7438 40.9231L32.7476 40.9191Z" fill="#001233"/>
</g>
<path id="Vector_13" d="M44.5388 61.0001L41.4023 48.8255L53.107 52.0864L47.2932 54.9519L44.5388 61.0001Z" fill="#FEFEFE"/>
<g id="Group_3">
<path id="Vector_14" d="M37.8495 58.1405C34.852 59.2302 31.7001 59.788 28.5232 59.788C12.9183 59.788 0.268555 46.6282 0.268555 30.394C0.268555 14.1599 12.9183 1.00006 28.5232 1.00006C44.1281 1.00006 56.7779 14.1599 56.7779 30.394C56.7779 35.9947 55.2406 41.479 52.3453 46.2007" stroke="#FEFEFE" stroke-width="0.350998" stroke-miterlimit="22.9256" stroke-linecap="round" stroke-linejoin="round"/>
</g>
</g>
</g>
</g>
</svg>
