<svg width="184" height="60" viewBox="0 0 184 60" fill="none" xmlns="http://www.w3.org/2000/svg">
<g id="logo_light mode" clip-path="url(#clip0_597_2915)">
<g id="Layer_x0020_1">
<g id="_2352032035808">
<path id="Vector" d="M67.0344 29.9974H67.2687C67.4321 29.9974 67.5956 30.0214 67.759 30.0214C68.6235 30.0214 69.5116 29.9494 70.3777 29.5462C71.9196 28.8805 72.3881 27.0224 72.3881 26.0479C72.3881 24.1435 71.2186 23.5722 69.793 23.5722C69.3953 23.5722 69.0229 23.6202 68.273 23.6906C68.0405 24.6428 67.9225 25.1901 67.572 26.9984L67.0344 29.9974ZM74.2114 29.6869C73.2525 30.6631 72.1083 31.092 71.1731 31.3528C71.3837 33.6844 72.5751 35.8736 74.235 37.6837C74.5619 38.0645 74.2114 38.7302 73.5811 38.7079H73.1834C73.1363 38.7079 73.0672 38.6839 72.9964 38.6839C71.9921 38.6839 70.9625 38.3974 70.4957 37.6837C70.0508 37.042 69.6076 36.2802 69.1627 35.3761C68.578 34.1631 68.1803 32.9003 67.995 31.8057H66.7092C66.5929 32.5915 66.4531 33.4477 66.2879 34.3518C66.1245 35.256 65.9846 36.1601 65.8431 36.9459V37.0403C65.8431 37.0883 65.8195 37.1346 65.8195 37.1587C65.8195 37.1827 65.8195 37.277 65.7959 37.3491C65.6796 38.0628 64.9314 38.7062 63.9962 38.7062C63.9726 38.7062 63.949 38.6822 63.8563 38.6822L63.6928 38.7062C62.8503 38.7062 62.1274 38.0868 62.2908 37.4692C62.5722 36.6354 62.852 35.1616 63.1317 33.7325C63.2952 32.8523 63.4586 31.9722 63.6221 31.0663C63.9726 29.1619 64.3231 27.2592 64.65 25.4509C64.837 24.4987 64.9078 23.833 64.955 23.332C65.0241 22.6423 65.656 21.9766 66.5913 21.9989H68.0405C68.6252 21.9749 69.4661 21.9749 69.7694 21.9749C69.9564 21.9749 70.1435 21.9509 70.2834 21.9509H70.6103C71.6854 21.9509 73.1818 21.9989 74.1861 22.6166C75.5662 23.5207 75.9622 24.8538 75.9622 25.83C75.9622 26.3533 75.8223 28.0673 74.2097 29.6852L74.2114 29.6869Z" fill="#001233"/>
<path id="_1" d="M79.3774 32.9003C80.6631 32.7099 82.018 31.8538 83.1874 30.7352C83.725 30.1879 84.1463 29.354 84.1463 28.3795C84.1463 27.3553 83.6559 26.88 83.0712 26.88C82.7206 26.88 81.9253 27.0465 80.9209 28.2371C80.1963 29.1173 79.5644 30.9256 79.3774 32.9021V32.9003ZM81.5984 37.3989C82.4409 37.3989 83.1419 37.1604 83.7014 36.9219C84.2861 36.6611 84.9871 37.0163 84.8473 37.5413C84.6838 38.0645 84.1934 38.5878 83.3509 38.8263C82.7661 38.9447 82.0415 39.0631 81.0608 39.0631C76.9929 38.9447 75.9886 36.7315 75.9414 33.7565C75.9414 31.2104 77.2036 29.0675 77.9989 28.093C79.6116 26.0462 81.9017 25.3805 83.5851 25.3805C86.0858 25.3805 87.348 26.6416 87.348 28.2835C87.348 28.9491 87.0211 29.8773 86.5071 30.6871C85.946 31.545 84.918 32.2347 84.0991 32.6396C82.6263 33.4013 81.0608 33.4957 79.2847 33.5677C79.2611 33.6621 79.2375 33.9726 79.2375 34.4239C79.2375 35.5665 79.5644 37.4229 81.5984 37.3989Z" fill="#001233"/>
<path id="_2" d="M97.1415 25.6173C97.8661 25.7837 98.1004 26.4734 97.9133 26.9504C97.7734 27.3312 97.3522 27.4736 96.8382 27.4736C96.5332 27.4736 96.2771 27.4256 96.09 27.3312H96.1136C95.8322 27.2369 95.5289 27.1648 95.1784 27.1648C92.3271 27.1648 90.6437 30.3543 90.6437 33.59C90.6437 34.755 90.8307 36.1841 91.8823 36.8498C92.4906 37.2547 93.0736 37.3971 93.6348 37.3971C94.1487 37.3971 94.5936 37.3011 95.0368 37.1346C95.7142 36.9442 96.2046 37.4211 96.0411 37.8964C95.8305 38.4437 95.1295 38.8486 94.3577 38.967C94.0072 39.015 93.564 39.039 93.1427 39.039C89.4489 39.039 87.2061 36.9922 87.2061 33.7565C87.2061 30.0437 89.8702 25.4509 95.5272 25.4509C96.2282 25.4509 96.7422 25.5229 97.1398 25.6173H97.1415Z" fill="#001233"/>
<path id="_3" d="M98.288 29.8773C98.5205 28.5923 98.5913 27.8065 98.5694 27.2592C98.5222 26.6639 98.9199 26.0702 99.7372 25.9501C99.9714 25.9261 100.182 25.9021 100.345 25.8781H100.322C101.164 25.7117 101.958 26.1886 101.911 26.7582C101.887 26.8303 101.887 27.0688 101.84 27.2352C101.817 27.3536 101.769 27.4256 101.747 27.544C102.122 27.0447 102.566 26.5678 103.104 26.1886C103.502 25.9261 103.992 25.7117 104.461 25.5452C105.325 25.2844 106.026 25.9501 105.817 26.6158C105.606 27.2352 104.718 27.6624 103.83 27.8768H103.854C102.966 28.1153 101.773 29.1138 101.143 31.4712C100.792 32.7082 100.254 35.8256 100.138 37.3731C100.067 38.0868 99.2956 38.6582 98.3857 38.6341H98.2694C97.4504 38.6341 96.7039 38.0868 96.8674 37.4452C96.9837 37.0403 97.1016 36.6114 97.1488 36.3025L98.2947 29.8773H98.288Z" fill="#001233"/>
<path id="_4" d="M108.408 33.0427C108.15 34.2557 108.058 34.8047 108.058 35.328C108.058 36.2082 108.361 36.9459 109.273 36.9459C109.67 36.9459 110.885 36.7555 111.868 35.1616H111.844C112.334 34.2815 112.896 32.0682 113.224 30.2359C113.48 28.8548 113.598 27.9283 113.622 27.3329C113.646 26.6432 114.207 25.9999 115.071 25.8334C115.095 25.8334 115.187 25.8334 115.235 25.8094L115.187 25.8575C115.304 25.7854 115.514 25.7391 115.631 25.7391C116.355 25.643 117.151 26.168 117.056 26.6913C116.729 27.8803 116.379 29.4278 116.005 31.617C115.42 34.9008 115.209 36.4964 115.209 37.3765V37.567C115.233 38.2086 114.485 38.7319 113.644 38.7319C112.756 38.7319 111.984 38.1366 112.031 37.4469V37.114C111.75 37.5189 111.446 37.8518 111.025 38.1606C109.974 38.8743 108.524 38.9944 108.15 38.9944C106.374 38.9944 104.785 38.1366 104.785 36.4003C104.785 36.0675 104.832 35.7346 104.972 34.8528L106.14 28.5459C106.234 28.093 106.28 27.7121 106.303 27.4273C106.351 26.808 106.701 26.0942 107.613 25.9278H107.566C107.613 25.9038 107.705 25.9038 107.8 25.9038C107.823 25.9038 107.893 25.8798 107.916 25.8798H107.869C107.938 25.8557 108.056 25.8317 108.172 25.8317C108.966 25.7374 109.785 26.307 109.669 26.9263C109.436 27.8785 109.318 28.3315 109.155 29.1396C109.131 29.2579 109.084 29.4261 109.062 29.5685L108.408 33.0427Z" fill="#001233"/>
<path id="_5" d="M123.109 22.4296C123.109 23.2136 122.408 24.4283 121.051 24.4283C120.258 24.4283 119.439 24.0474 119.439 23.1673C119.439 22.4296 120.093 21.2166 121.542 21.2166C122.361 21.2166 123.107 21.6215 123.107 22.4296H123.109ZM121.238 32.8643C120.817 35.2371 120.63 36.6405 120.561 37.4452C120.514 38.1349 119.673 38.6118 118.785 38.6118H118.598C117.85 38.6359 117.267 37.9685 117.336 37.3748C117.336 37.3508 117.359 37.3028 117.359 37.2565C117.476 36.7606 117.641 36.0949 117.804 35.1222L118.202 32.794C118.763 29.656 118.972 28.1136 118.95 27.2609C118.926 26.6896 119.184 25.9999 120.072 25.9518C120.399 25.9038 120.633 25.8575 120.891 25.8094C121.685 25.643 122.364 26.2384 122.317 26.856C122.293 26.9521 122.27 27.1185 122.27 27.2369C122.175 27.6658 122.059 28.232 121.919 29.0178L121.242 32.8643H121.238Z" fill="#001233"/>
<path id="_6" d="M128.041 25.4508C128.205 24.4266 128.345 23.857 128.579 23.0712C128.742 22.4518 127.878 22.0006 127.059 22.167C126.053 22.4055 125.352 23.0712 125.283 23.833C125.235 24.3099 125.188 24.8092 125.072 25.4045C124.464 25.4045 124.021 25.7854 123.95 26.2606C123.881 26.6415 124.255 26.9744 124.722 27.0704L123.249 34.9712C123.132 35.6368 123.038 36.1601 123.038 36.6131C123.038 37.0883 123.225 37.5172 123.576 38.0405C123.926 38.5398 124.932 38.9927 126.498 38.9927C126.661 38.9927 126.943 38.9927 127.106 38.9687C127.949 38.8503 128.555 38.327 128.695 37.7317C128.764 37.3268 128.157 36.9219 127.526 37.018C127.339 37.066 127.175 37.09 127.035 37.09C126.521 37.09 126.147 36.7332 126.147 35.853C126.147 35.1633 126.334 34.091 126.592 32.854C126.661 32.4971 126.779 31.9962 126.872 31.4489C126.988 30.8072 127.13 30.0935 127.246 29.4501C127.386 28.7364 127.526 28.0209 127.644 27.4513C127.667 27.3089 127.691 27.2369 127.714 27.1185C128.041 27.1185 128.415 27.1185 128.86 27.1425C129.632 27.1425 130.309 26.8097 130.449 26.2864C130.544 25.8094 129.982 25.3342 129.281 25.4062C129.047 25.4303 128.767 25.4303 128.462 25.4303C128.346 25.4303 128.228 25.4543 128.112 25.4543H128.041V25.4508Z" fill="#001233"/>
<path id="_7" d="M131.361 29.8773C131.593 28.5923 131.664 27.7825 131.64 27.2352C131.593 26.6639 131.851 26.0445 132.412 25.9742C132.646 25.9501 132.857 25.9261 133.042 25.9038C133.627 25.7854 134.188 26.2126 134.072 26.808C133.978 27.2609 133.582 28.9268 133.395 29.9254C133.932 29.0452 134.775 27.0465 135.99 26.2126C136.48 25.8798 136.901 25.6893 137.252 25.571C137.813 25.4045 138.211 26.0239 138.024 26.5712C137.789 27.2609 137.088 27.6418 136.387 27.8082C135.289 28.0707 133.956 29.0692 133.302 31.4489C132.951 32.7099 132.414 35.8513 132.296 37.4229C132.227 38.1126 131.666 38.6599 130.987 38.6359C130.939 38.6359 130.917 38.6359 130.87 38.6359C130.286 38.6359 129.772 38.1126 129.935 37.5172C130.051 37.1123 130.168 36.6834 130.216 36.3283L131.362 29.879L131.361 29.8773Z" fill="#FF595A"/>
<path id="_8" d="M148.354 25.8317C148.915 25.6413 149.382 26.2607 149.242 26.832C149.055 27.6178 148.798 28.8307 148.401 31.044L147.98 33.3996C147.582 35.6849 147.466 36.9459 147.466 37.7077C147.466 38.279 146.928 38.6839 146.367 38.7079C145.782 38.7319 145.292 38.255 145.339 37.6836C145.433 36.7074 145.76 34.9471 145.76 34.6606C144.685 36.1121 143.165 38.9687 141.015 38.9687C139.308 38.9687 137.603 37.7077 137.603 34.9952C137.603 33.8525 138 29.4261 141.482 26.808C142.043 26.379 143.376 25.4749 145.315 25.4749C146.367 25.4749 147.068 25.7374 147.816 26.0222L148.354 25.8317ZM146.904 27.3553C146.461 27.2129 145.806 26.9744 144.918 26.9744C140.991 26.9744 139.94 32.1146 139.94 34.1133C139.94 35.7552 140.525 36.9682 142.043 36.9682C142.907 36.9682 143.937 36.5633 144.754 35.3503C145.432 34.3501 145.876 32.9707 146.298 30.6614L146.904 27.3535V27.3553Z" fill="#FF595A"/>
<path id="_9" d="M160.555 33.0427C160.322 34.4719 159.993 36.2082 159.993 37.4932C159.97 38.1126 159.572 38.6822 158.966 38.7062C158.288 38.7062 157.703 38.1589 157.796 37.4692C157.843 37.0883 158.078 35.5185 158.217 34.827C157.306 36.0675 155.904 38.9447 153.777 38.9447C151.907 38.9447 150.294 37.6116 150.294 34.906C150.294 34.2403 150.481 30.893 152.655 28.2303C153.964 26.6158 155.904 25.5212 157.938 25.5212C158.662 25.5212 159.129 25.6636 159.69 25.83C159.924 24.569 160.041 23.8313 159.995 23.308C159.972 22.6886 160.275 22.047 160.86 21.9749C161.047 21.9509 161.21 21.9269 161.35 21.8805C161.935 21.7621 162.518 22.1894 162.402 22.7607C162.262 23.3783 162.12 24.2121 161.817 25.854L160.555 33.041V33.0427ZM152.631 34.1219C152.631 35.7844 153.379 37.0214 154.689 37.0214C155.531 37.0214 156.723 36.4741 157.564 34.7876C158.241 33.4065 158.522 31.9842 159.434 27.3038C158.873 27.1408 158.383 26.9984 157.705 26.9984C153.614 26.9984 152.633 32.6258 152.633 34.1219H152.631Z" fill="#FF595A"/>
<path id="_10" d="M173.691 25.8317C174.253 25.6413 174.719 26.2607 174.58 26.832C174.393 27.6178 174.136 28.8307 173.739 31.044L173.317 33.3996C172.92 35.6849 172.803 36.9459 172.803 37.7077C172.803 38.279 172.266 38.6839 171.705 38.7079C171.12 38.7319 170.63 38.255 170.677 37.6836C170.771 36.7074 171.098 34.9471 171.098 34.6606C170.023 36.1121 168.503 38.9687 166.353 38.9687C164.646 38.9687 162.94 37.7077 162.94 34.9952C162.94 33.8525 163.338 29.4261 166.82 26.808C167.381 26.379 168.714 25.4749 170.653 25.4749C171.705 25.4749 172.406 25.7374 173.154 26.0222L173.691 25.8317ZM172.242 27.3553C171.799 27.2129 171.144 26.9744 170.256 26.9744C166.329 26.9744 165.278 32.1146 165.278 34.1133C165.278 35.7552 165.862 36.9682 167.381 36.9682C168.245 36.9682 169.275 36.5633 170.092 35.3503C170.77 34.3501 171.214 32.9707 171.636 30.6614L172.242 27.3535V27.3553Z" fill="#FF595A"/>
<path id="_11" d="M177.15 29.8773C177.382 28.5923 177.453 27.7825 177.429 27.2352C177.382 26.6639 177.64 26.0445 178.201 25.9742C178.435 25.9501 178.646 25.9261 178.831 25.9038C179.416 25.7854 179.977 26.2126 179.861 26.808C179.767 27.2609 179.371 28.9268 179.184 29.9254C179.721 29.0452 180.564 27.0465 181.779 26.2126C182.269 25.8798 182.69 25.6893 183.041 25.571C183.602 25.4045 184 26.0239 183.813 26.5712C183.578 27.2609 182.877 27.6418 182.176 27.8082C181.078 28.0707 179.745 29.0692 179.091 31.4489C178.74 32.7099 178.203 35.8513 178.085 37.4229C178.016 38.1126 177.455 38.6599 176.776 38.6359C176.728 38.6359 176.707 38.6359 176.659 38.6359C176.075 38.6359 175.561 38.1126 175.724 37.5172C175.84 37.1123 175.957 36.6834 176.006 36.3283L177.151 29.879L177.15 29.8773Z" fill="#FF595A"/>
<g id="Group">
<g id="Group_2">
<path id="Vector_2" d="M29.0089 8.60631C40.3616 8.60631 49.5657 17.9756 49.5657 29.5359C49.5657 41.0944 40.3616 50.4655 29.0089 50.4655C17.6563 50.4655 8.45215 41.0944 8.45215 29.5359C8.45215 17.9773 17.6563 8.60631 29.0089 8.60631Z" fill="#FF595A"/>
<path id="Vector_3" d="M19.2725 28.2663C20.0105 28.6472 20.8413 28.8633 21.7226 28.8633C22.6612 28.8633 23.5459 28.6197 24.3177 28.1925C24.4323 28.3915 24.5587 28.582 24.6969 28.7638C24.6615 28.7844 24.6278 28.8016 24.5924 28.8239C23.0791 29.6766 21.8844 30.9547 21.116 32.4628C20.3172 31.1744 19.6921 29.7658 19.2725 28.268V28.2663Z" fill="#FEFEFE"/>
<path id="Vector_4" d="M18.4219 26.3138C18.5803 26.4957 18.7522 26.6621 18.9375 26.8165C18.7589 25.8454 18.6645 24.8435 18.6645 23.8209C18.6645 22.3695 18.855 20.9626 19.2071 19.6227C19.1381 19.6707 19.0706 19.7222 19.0032 19.7754C19.069 19.7222 19.1364 19.6724 19.2055 19.6227C19.9199 19.1183 20.7861 18.8215 21.7213 18.8215C23.3694 18.8215 24.8034 19.7411 25.5634 21.1016C24.3451 22.119 23.5665 23.6631 23.5665 25.3891C23.5665 26.041 23.6778 26.6655 23.8834 27.2489C23.2447 27.6143 22.5083 27.8253 21.723 27.8253C20.6665 27.8253 19.6975 27.4479 18.9375 26.8182C18.7522 26.6655 18.5803 26.4974 18.4219 26.3155V26.3138Z" fill="#FEFEFE"/>
<path id="Vector_5" d="M42.1839 37.73C42.1148 36.3317 42.0019 34.7601 41.9277 34.3158C41.9446 34.7876 41.8553 36.3935 41.7441 37.7986C40.4937 37.9822 39.1844 38.1023 37.8346 38.1555C37.8582 37.4212 37.8717 36.7984 37.8717 36.5307V36.4998C37.8717 33.3155 36.1747 30.3817 33.4432 28.8325C33.4027 28.8067 33.364 28.7844 33.3252 28.7604C33.4617 28.5803 33.5864 28.3915 33.701 28.1942C34.4728 28.6231 35.3574 28.8651 36.2961 28.8651C37.6762 28.8651 38.935 28.3383 39.8955 27.4754C39.9983 27.532 40.1011 27.5937 40.2055 27.6624C42.5479 28.9783 44.1369 31.5192 44.1369 34.4359V34.4668C44.1369 34.815 44.1133 35.8307 44.0695 36.9082C43.7595 37.1398 43.4427 37.3611 43.1157 37.5704C42.8091 37.6287 42.4973 37.6836 42.1839 37.7334V37.73Z" fill="#FEFEFE"/>
<path id="Vector_6" d="M36.2972 18.8215C38.7389 18.8215 40.7172 20.8357 40.7172 23.3217C40.7172 25.806 38.7389 27.8219 36.2972 27.8219C35.5119 27.8219 34.7755 27.6109 34.1368 27.2454C34.3407 26.6638 34.4519 26.0376 34.4519 25.3856C34.4519 23.6597 33.6734 22.1156 32.4551 21.0982C33.2151 19.7376 34.6491 18.818 36.2972 18.818V18.8215Z" fill="#FEFEFE"/>
<path id="Vector_7" d="M33.3041 40.0118C28.5858 39.6172 24.4437 37.1243 21.7812 33.4528C21.6346 33.7994 21.5133 34.1579 21.4189 34.5285C21.515 34.1579 21.6363 33.7994 21.7812 33.4528C22.4502 31.8658 23.6248 30.5533 25.1009 29.7246C25.2088 29.6594 25.3166 29.6028 25.4228 29.5479C26.3816 30.4057 27.637 30.929 29.0121 30.929C30.3922 30.929 31.651 30.4023 32.6115 29.5393C32.7143 29.5959 32.8171 29.6577 32.9216 29.7263C35.2639 31.0423 36.853 33.5832 36.853 36.4998V36.5307C36.853 36.9305 36.8226 38.2035 36.7653 39.4422C36.1621 39.576 35.5386 39.6944 34.9016 39.7957C34.8325 38.3974 34.7196 36.8258 34.6471 36.3815C34.664 36.8533 34.573 38.4591 34.4635 39.8643C34.0843 39.9192 33.6984 39.9689 33.3092 40.0135C32.9721 40.0513 32.6334 40.0856 32.2897 40.1131C32.6317 40.0839 32.9721 40.0513 33.3092 40.0135L33.3041 40.0118Z" fill="#FEFEFE"/>
<path id="Vector_8" d="M29.0119 29.8876C26.5701 29.8876 24.5918 27.8734 24.5918 25.3874C24.5918 22.9013 26.5701 20.8871 29.0119 20.8871C31.4536 20.8871 33.4319 22.9031 33.4319 25.3874C33.4319 27.8734 31.4536 29.8876 29.0119 29.8876Z" fill="#FEFEFE"/>
<path id="Vector_9" d="M20.8924 32.9329C20.6868 33.403 20.5217 33.892 20.3986 34.3947C20.397 34.3981 20.397 34.4033 20.3953 34.4067C20.3565 34.5645 20.3245 34.7241 20.2942 34.8837C20.2908 34.9025 20.2874 34.9214 20.284 34.9386C20.2571 35.093 20.2335 35.2474 20.2133 35.4035C20.2099 35.4258 20.2082 35.4498 20.2048 35.4721C20.1863 35.6283 20.1728 35.7844 20.1627 35.9422C20.161 35.9611 20.161 35.98 20.1593 35.9988C20.1509 36.1636 20.1442 36.3283 20.1442 36.4947V36.5256C20.1442 36.5599 20.1442 36.5993 20.1442 36.6439C20.1442 36.6885 20.1459 36.7383 20.1459 36.7932C20.1476 36.9013 20.1492 37.0265 20.1526 37.1672C20.1577 37.4486 20.1678 37.7866 20.1796 38.1503C19.1668 38.1108 18.1776 38.0319 17.2188 37.9187C16.8986 37.8809 16.5835 37.8381 16.2701 37.7917C16.2566 37.6167 16.2431 37.4366 16.2296 37.2582C16.2044 36.8996 16.1808 36.5393 16.1589 36.1979C16.1488 36.028 16.1387 35.8599 16.1302 35.702C16.1134 35.3846 16.0999 35.0947 16.0915 34.8579C16.0881 34.7378 16.0847 34.6315 16.0847 34.5388C16.083 34.4479 16.0847 34.3707 16.0864 34.3123C16.0763 34.3672 16.0662 34.441 16.0561 34.5285C16.046 34.6177 16.0342 34.7207 16.0241 34.8356C16.019 34.8939 16.014 34.954 16.0072 35.0175C15.9904 35.2079 15.9718 35.4258 15.955 35.6591C15.9432 35.8153 15.9314 35.9783 15.9196 36.1464C15.9095 36.3145 15.8977 36.4878 15.8876 36.6628C15.8775 36.8378 15.8657 37.0162 15.8572 37.1947C15.8471 37.3731 15.8387 37.5498 15.8303 37.7248C15.1916 37.6236 14.5698 37.5035 13.9682 37.3697C13.9463 36.9064 13.9278 36.4363 13.9143 36.0091C13.9092 35.8667 13.9059 35.7295 13.9008 35.5991C13.8974 35.4687 13.8941 35.3435 13.8907 35.2285C13.8873 35.1118 13.8856 35.0055 13.884 34.9077C13.8806 34.7121 13.8789 34.5577 13.8789 34.4582V34.4273C13.8789 34.0636 13.9042 33.7033 13.9514 33.3533C13.975 33.1766 14.0053 33.0033 14.0407 32.8317C14.13 32.4028 14.253 31.9859 14.408 31.5861C14.5951 31.1057 14.8259 30.6511 15.0989 30.2239C15.1899 30.0815 15.2843 29.9425 15.3854 29.807C15.4343 29.7383 15.4848 29.6714 15.5371 29.6062C15.6921 29.4072 15.8572 29.2185 16.0308 29.0366C16.5515 28.491 17.1514 28.0244 17.8103 27.6538C17.9181 27.5886 18.026 27.532 18.1322 27.4771C18.2097 27.5457 18.2906 27.6126 18.3714 27.6778C18.39 27.6932 18.4085 27.707 18.4287 27.7224C18.5079 27.7842 18.5888 27.8442 18.6714 27.9026C18.6731 27.9043 18.6748 27.906 18.6764 27.906C18.7691 27.9695 18.8635 28.0312 18.9612 28.0896C18.9663 28.093 18.9697 28.0947 18.9747 28.0981C19.0708 28.1565 19.1702 28.2114 19.2696 28.2628C19.6892 29.7606 20.3144 31.1692 21.1131 32.4577C21.0356 32.6104 20.9615 32.7631 20.8941 32.9209C20.8924 32.9244 20.8907 32.9261 20.8907 32.9295L20.8924 32.9329Z" fill="#001233"/>
<path id="Vector_10" d="M19.2089 19.621C18.8567 20.9609 18.6663 22.3678 18.6663 23.8192C18.6663 24.8435 18.7606 25.8437 18.9393 26.8148C18.7539 26.6621 18.582 26.494 18.4236 26.3121C18.4169 26.3053 18.4101 26.2967 18.4034 26.2898C18.3596 26.2383 18.3158 26.1869 18.2736 26.1337C18.2635 26.12 18.2534 26.1079 18.2433 26.0942C18.2062 26.0462 18.1692 25.9964 18.1338 25.945C18.122 25.9295 18.1119 25.9141 18.1017 25.8986C18.068 25.8489 18.0343 25.7991 18.0023 25.7477C17.9922 25.7322 17.9821 25.7151 17.972 25.6996C17.94 25.6464 17.908 25.5915 17.8776 25.5366C17.8692 25.5229 17.8608 25.5092 17.854 25.4955C17.8186 25.4303 17.7833 25.3633 17.7512 25.2947C17.7496 25.2913 17.7479 25.2879 17.7462 25.2861C17.7108 25.2124 17.6771 25.1369 17.6468 25.0614C17.6468 25.0597 17.6451 25.058 17.6451 25.0562C17.6164 24.9859 17.5895 24.9138 17.5642 24.8418C17.5575 24.8212 17.5507 24.8006 17.5423 24.78C17.5238 24.7268 17.5069 24.6719 17.4917 24.617C17.4833 24.5896 17.4766 24.5638 17.4681 24.5364C17.4547 24.4866 17.4412 24.4369 17.4294 24.3854C17.4226 24.3562 17.4159 24.3254 17.4092 24.2962C17.3991 24.2482 17.3889 24.1984 17.3805 24.1486C17.3755 24.1178 17.3687 24.0869 17.3637 24.056C17.3552 24.0062 17.3485 23.9548 17.3418 23.905C17.3384 23.8741 17.335 23.8433 17.3316 23.8141C17.3266 23.7592 17.3215 23.7026 17.3165 23.6477C17.3148 23.6219 17.3114 23.5962 17.3114 23.5705C17.3064 23.4881 17.3047 23.4058 17.3047 23.3217C17.3047 23.2325 17.3081 23.145 17.3131 23.0592C17.3148 23.0317 17.3165 23.006 17.3182 22.9785C17.3232 22.9185 17.3283 22.8584 17.335 22.7967C17.3384 22.7675 17.3418 22.7366 17.3451 22.7075C17.3536 22.6474 17.362 22.5891 17.3721 22.5308C17.3771 22.505 17.3805 22.4776 17.3873 22.4518C17.4024 22.3781 17.4176 22.3043 17.4344 22.2305C17.4361 22.2219 17.4378 22.2134 17.4395 22.2048C17.4614 22.1207 17.4833 22.0384 17.5103 21.9577C17.5153 21.9406 17.5204 21.9251 17.5271 21.908C17.5473 21.8445 17.5693 21.7793 17.5928 21.7175C17.6013 21.6952 17.6097 21.6746 17.6181 21.6523C17.6417 21.5923 17.6653 21.5339 17.6923 21.4739C17.7007 21.455 17.7091 21.4362 17.7159 21.419C17.7479 21.3487 17.7833 21.2783 17.8186 21.2097C17.8203 21.2063 17.8237 21.2011 17.8254 21.196C17.9063 21.0433 17.9956 20.8957 18.0916 20.755C18.0984 20.7447 18.1068 20.7344 18.1135 20.7241C18.1557 20.6641 18.1995 20.604 18.245 20.5457C18.2517 20.5371 18.2602 20.5268 18.2669 20.5183C18.427 20.3141 18.6039 20.1254 18.7943 19.9521C18.796 19.9504 18.7977 19.9487 18.7994 19.9469C18.8617 19.892 18.9241 19.8389 18.9881 19.7857C18.9932 19.7822 18.9982 19.7771 19.005 19.7719C19.0707 19.7188 19.1398 19.6673 19.2089 19.6192V19.621Z" fill="#001233"/>
<path id="Vector_11" d="M44.0507 37.3748C43.7441 37.4435 43.434 37.5069 43.1172 37.5653C43.4424 37.356 43.7609 37.1346 44.071 36.903C44.0642 37.0591 44.0575 37.217 44.0507 37.3748Z" fill="#C8C8C9"/>
<path id="Vector_12" d="M33.305 40.0118C32.968 40.0496 32.6293 40.0822 32.2855 40.1113C32.2636 40.113 32.2417 40.1148 32.2198 40.1165C31.8861 40.1439 31.5491 40.1679 31.2087 40.1868C31.202 40.1868 31.1952 40.1885 31.1902 40.1885C30.8633 40.2074 30.533 40.2194 30.201 40.2297C30.1353 40.2314 30.0696 40.2331 30.0039 40.2349C29.6753 40.2434 29.345 40.2486 29.0113 40.2486C28.2985 40.2486 27.5975 40.2297 26.9066 40.1937C26.2359 40.1577 25.577 40.1028 24.9316 40.0341C24.4682 39.9844 24.0116 39.926 23.5616 39.8608C23.5279 39.4216 23.4959 38.9635 23.469 38.526C23.4589 38.351 23.4471 38.1795 23.4386 38.0148C23.4302 37.8535 23.4218 37.6974 23.4134 37.5498C23.41 37.4709 23.4049 37.3937 23.4032 37.3182C23.3965 37.1775 23.3914 37.0454 23.3881 36.9253C23.3864 36.8636 23.3847 36.8069 23.383 36.752C23.3796 36.5942 23.378 36.4672 23.3813 36.3797C23.3426 36.6011 23.2954 37.1055 23.2499 37.7265C23.2381 37.8827 23.2263 38.0457 23.2162 38.2138C23.2044 38.3819 23.1943 38.5552 23.1825 38.7302C23.1724 38.9069 23.1623 39.0836 23.1522 39.2621C23.142 39.4405 23.1336 39.6189 23.1252 39.7922C22.4882 39.691 21.8664 39.5709 21.2631 39.4388C21.2042 38.2001 21.1738 36.927 21.1738 36.5273V36.4964C21.1738 36.3763 21.1772 36.2545 21.1823 36.1361C21.1839 36.1069 21.1856 36.0778 21.1873 36.0486C21.2008 35.8067 21.2261 35.5682 21.2598 35.3332C21.2631 35.3126 21.2665 35.292 21.2682 35.2731C21.307 35.0295 21.3558 34.7893 21.4165 34.5525C21.4182 34.544 21.4215 34.5354 21.4232 34.5268C21.5193 34.1579 21.6406 33.7976 21.7855 33.4511C24.4497 37.1209 28.5917 39.6138 33.3084 40.0101L33.305 40.0118Z" fill="#001233"/>
</g>
<path id="Vector_13" d="M45.2974 59.9995L42.1074 47.8834L54.0094 51.1294L48.098 53.9809L45.2974 59.9995Z" fill="#001233"/>
<g id="Group_3">
<path id="Vector_14" d="M38.4924 57.1532C35.444 58.2392 32.2372 58.7934 29.0069 58.7934C13.1364 58.7934 0.270508 45.6942 0.270508 29.5359C0.270508 13.3776 13.1364 0.278412 29.0069 0.278412C44.8773 0.278412 57.7432 13.3776 57.7432 29.5359C57.7432 35.1101 56.1794 40.5677 53.2355 45.2687" stroke="#373435" stroke-width="0.444704" stroke-miterlimit="22.9256" stroke-linecap="round" stroke-linejoin="round"/>
</g>
</g>
</g>
</g>
</g>
<defs>
<clipPath id="clip0_597_2915">
<rect width="184" height="60" fill="white"/>
</clipPath>
</defs>
</svg>
